<svg id="Layer_1" data-name="Layer 1" xmlns="http://www.w3.org/2000/svg" viewBox="0 0 500 500"><defs><style>.cls-1{fill:#099;}.cls-2{fill:#fff;stroke:#099;stroke-miterlimit:10;stroke-width:10px;}</style></defs><title>JAB Egg Cell Donor Icons Icons</title><path class="cls-1" d="M250,10h1.72A240.07,240.07,0,0,1,343,471.33,238.39,238.39,0,0,1,250,490h-1.72A240.07,240.07,0,0,1,157,28.68,238.41,238.41,0,0,1,250,10m0-10C112.71,0,1,110.78,0,248.25-1,386.32,110.18,499,248.25,500H250c137.25,0,249-110.78,250-248.25C501,113.68,389.82,1,251.75,0Z" transform="translate(0 0)"/><circle class="cls-1" cx="267" cy="269" r="181"/><ellipse class="cls-2" cx="343.86" cy="352.45" rx="49.04" ry="48.98" transform="translate(-142.23 431.03) rotate(-54.89)"/><path class="cls-1" d="M266.5,72.5c108.25,0,196,87.75,196,196s-87.75,196-196,196-196-87.75-196-196,87.75-196,196-196m0-16A211.39,211.39,0,1,0,349,73.17,210.69,210.69,0,0,0,266.5,56.5Z" transform="translate(0 0)"/></svg>