<svg id="Layer_1" data-name="Layer 1" xmlns="http://www.w3.org/2000/svg" viewBox="0 0 500 500"><defs><style>.cls-1{fill:#099;}</style></defs><title>JAB Sperm Donor Icons</title><path class="cls-1" d="M250,10h1.72A240.07,240.07,0,0,1,343,471.33,238.39,238.39,0,0,1,250,490h-1.72A240.07,240.07,0,0,1,157,28.68,238.41,238.41,0,0,1,250,10m0-10C112.71,0,1,110.78,0,248.25-1,386.32,110.18,499,248.25,500H250c137.25,0,249-110.78,250-248.25C501,113.68,389.82,1,251.75,0Z" transform="translate(0 0)"/><path class="cls-1" d="M314.89,58.08c-10.2-11.29-25.06-16.8-41.91-16.92v.5h0v-.5h0C247.8,41,218.22,52.83,193.2,75.43c-41.78,37.74-55,91.15-29.61,119.3,10.2,11.29,25.07,16.8,41.92,16.92,25.16.18,54.75-11.68,79.77-34.28C327.06,139.64,340.31,86.23,314.89,58.08Z" transform="translate(0 0)"/><polygon class="cls-1" points="272.97 41.16 272.97 41.16 272.97 41.16 272.97 41.16"/><path class="cls-1" d="M192.67,195.52c-11.43,11.32-22.93,21.86-33.81,32.43s-21.31,21.17-30.31,32.38l-3.37,4.2L122,268.81,120.44,271c-.52.72-1,1.46-1.47,2.18l-2.92,4.38a130.06,130.06,0,0,0-9.62,18.18A68.72,68.72,0,0,0,101,314l-.19,1.16-.12,1.16-.25,2.32c-.06,1.54-.23,3.09-.18,4.61a51.87,51.87,0,0,0,.68,9l.39,2.17c.16.71.36,1.4.52,2.11l.26,1.06.34,1c.23.67.42,1.37.67,2a42.6,42.6,0,0,0,3.75,7.49,41.36,41.36,0,0,0,5.33,6.48,49.17,49.17,0,0,0,6.89,5.43,58.66,58.66,0,0,0,8.13,4.19,66.17,66.17,0,0,0,9,2.82,69.26,69.26,0,0,0,9.45,1.36c1.6,0,3.16.17,4.83.08s3.31,0,4.94-.23a73,73,0,0,0,19.39-4.3,94.71,94.71,0,0,0,18.46-9.33,154,154,0,0,0,17.32-13.11l4.17-3.69,4.13-3.82q4.29-4,8.66-8.05a341.05,341.05,0,0,1,37.25-30.15,212.11,212.11,0,0,1,20.8-12.63,112.65,112.65,0,0,1,23.22-9.28A82.77,82.77,0,0,1,334.14,271l1.6.06c.53,0,1.06.11,1.59.16l3.18.35a30.44,30.44,0,0,1,3.15.49l3.13.58c1,.16,2.06.48,3.08.74l3.05.81c1,.24,2.05.63,3.07,1s2,.73,3,1.14a56.17,56.17,0,0,1,21.2,14.85,59,59,0,0,1,12.26,22.33,69.67,69.67,0,0,1,2.63,24.77,75.7,75.7,0,0,1-5.68,23.89,78.21,78.21,0,0,1-12.75,20.69,88,88,0,0,1-18,15.94A95.72,95.72,0,0,1,326,412.7a76.63,76.63,0,0,1-11.73,1.73,67.9,67.9,0,0,1-23.39-2.49,53.42,53.42,0,0,1-20.39-11.18,52.77,52.77,0,0,0,20.72,9.94,66,66,0,0,0,22.83,1.17,73.74,73.74,0,0,0,11.2-2.29,92,92,0,0,0,10.8-3.73,90.75,90.75,0,0,0,19.7-11.25c12.05-9.05,21.66-21.31,26.53-35.23s5.29-29.31.47-42.71a48.12,48.12,0,0,0-11-17.65,44,44,0,0,0-17.26-10.71c-.81-.27-1.62-.56-2.46-.76s-1.63-.48-2.53-.64l-2.61-.54a26.07,26.07,0,0,0-2.62-.48,66.58,66.58,0,0,0-10.51-.77,68,68,0,0,0-20.64,3.49,96.84,96.84,0,0,0-19.51,9.11,195.36,195.36,0,0,0-18.36,12.59,322.34,322.34,0,0,0-33.54,30.37q-4,4.1-8,8.28l-4.2,4.33-4.33,4.28a176.4,176.4,0,0,1-19,16.06,118.51,118.51,0,0,1-22.4,12.89,98.09,98.09,0,0,1-25.61,7.19c-2.21.39-4.44.49-6.67.68s-4.53.21-6.81.26a95.48,95.48,0,0,1-13.69-1.19,93.06,93.06,0,0,1-13.45-3.4,86.27,86.27,0,0,1-12.91-5.75A77.56,77.56,0,0,1,92.86,376a70.49,70.49,0,0,1-10.11-10.91,72.11,72.11,0,0,1-7.46-12.89c-.51-1.13-.92-2.27-1.38-3.42l-.67-1.72-.56-1.74c-.36-1.16-.74-2.32-1.07-3.49l-.86-3.52a82.75,82.75,0,0,1-1.91-14.14c-.18-2.36-.11-4.69-.12-7l.17-3.49.1-1.74.17-1.73a100.91,100.91,0,0,1,6.27-26.65A163.77,163.77,0,0,1,86.29,259.9l3.24-5.52c.55-.91,1.07-1.85,1.64-2.74L92.89,249l3.47-5.3,3.64-5.11c9.75-13.59,20.56-25.75,31.33-37.47S153,178.34,163,167.21Z" transform="translate(0 0)"/><path class="cls-1" d="M209.43,147.12h0a31.09,31.09,0,0,0-43.76,2.7l-23.47,26.56a31.09,31.09,0,0,0,2.7,43.76h0a31.09,31.09,0,0,0,43.76-2.7l23.47-26.56A31.09,31.09,0,0,0,209.43,147.12Z" transform="translate(0 0)"/></svg>