<?xml version="1.0" encoding="utf-8"?>
<!-- Generator: Adobe Illustrator 21.1.0, SVG Export Plug-In . SVG Version: 6.00 Build 0)  -->
<svg version="1.1" id="Layer_1" xmlns="http://www.w3.org/2000/svg" xmlns:xlink="http://www.w3.org/1999/xlink" x="0px" y="0px"
	 viewBox="0 0 165 153.1" style="enable-background:new 0 0 165 153.1;" xml:space="preserve">
<style type="text/css">
	.st0{fill:#BD80CD;}
	.st1{fill:#FFA6A6;}
	.st2{opacity:0.6;}
	.st3{fill:#BF7FCC;}
</style>
<g>
	<path class="st0" d="M128.8,118.8v-6.6c7.3,0,13.2-5.9,13.2-13.2c0-7.3-5.9-13.2-13.2-13.2v-6.6c10.9,0,19.8,8.9,19.8,19.8
		S139.7,118.8,128.8,118.8z"/>
</g>
<g>
	<path class="st0" d="M44.2,118.8c-10.9,0-19.8-8.9-19.8-19.8s8.9-19.8,19.8-19.8v6.6C36.9,85.8,31,91.7,31,99
		c0,7.3,5.9,13.2,13.2,13.2V118.8z"/>
</g>
<g>
	<g>
		<path class="st1" d="M124.5,125c0.3,0.1,0.5,0.2,0.8,0.4c1.7,0.9,3,3.4,1.9,6.6l-0.4,1c-1.5,2.8-5.3,5.5-13.7,7.2
			c-4.5-7.3-5.1-11.9-4.1-14.9l0.4-1c1.6-2.9,4.3-3.7,6.1-3.1c0.3,0.1,0.6,0.2,0.8,0.3c2,0.9,2.6,2.2,3.1,4
			C121.2,124.5,122.5,124.1,124.5,125"/>
		<path class="st0" d="M112.8,140.6l-0.2-0.3c-4-6.6-5.4-11.6-4.1-15.3l0.5-1c1.7-3.2,4.6-4,6.6-3.3c0.3,0.1,0.6,0.2,0.9,0.3
			c2,0.9,2.7,2.2,3.2,3.7c1.5-0.7,2.9-1.1,4.9-0.2c0.3,0.1,0.5,0.3,0.8,0.4c1.8,1,3.3,3.7,2.1,7.1l-0.5,1c-1.8,3.5-6.4,5.9-14,7.4
			L112.8,140.6z M114.3,121.4c-1.5,0-3.3,0.9-4.5,3l-0.4,1c-1.2,3.3,0.1,8,3.9,14.2c7.1-1.5,11.4-3.7,13.1-6.9l0.4-1
			c1-2.9-0.2-5.1-1.7-6c-0.3-0.1-0.5-0.3-0.7-0.4h0c-1.7-0.8-2.9-0.5-4.7,0.4l-0.5,0.2l-0.1-0.5c-0.6-1.9-1.1-2.9-2.9-3.7
			c-0.2-0.1-0.5-0.2-0.8-0.3C115,121.4,114.7,121.4,114.3,121.4z"/>
	</g>
</g>
<g>
	<g>
		<path class="st1" d="M100.2,119.7c0.3-0.1,0.5-0.2,0.8-0.3c1.8-0.5,4.5,0.4,5.9,3.5l0.4,1c0.8,3.1-0.1,7.6-5.1,14.6
			c-8.3-2.3-11.9-5.2-13.2-8.1l-0.4-1c-0.9-3.2,0.6-5.6,2.3-6.4c0.3-0.1,0.6-0.2,0.8-0.3c2.1-0.7,3.4-0.2,5,0.7
			C97.5,121.7,98.2,120.4,100.2,119.7"/>
		<path class="st0" d="M102.5,139.1l-0.3-0.1c-7.5-2-11.9-4.8-13.5-8.3l-0.4-1.1c-1-3.5,0.7-6.1,2.6-7c0.3-0.1,0.6-0.3,0.8-0.4
			c2.1-0.7,3.5-0.3,4.9,0.5c0.6-1.5,1.4-2.8,3.5-3.5l0,0c0.3-0.1,0.6-0.2,0.9-0.3c2-0.5,4.9,0.4,6.4,3.7l0.4,1.1
			c1,3.8-0.6,8.7-5.1,15L102.5,139.1z M93.7,122.8c-0.5,0-1,0.1-1.7,0.3c-0.2,0.1-0.5,0.2-0.8,0.3c-1.6,0.7-2.9,2.9-2.1,5.9l0.4,1
			c1.4,3.2,5.6,5.8,12.6,7.7c4.2-6,5.7-10.6,4.8-14l-0.4-1c-1.3-2.8-3.7-3.6-5.4-3.2c-0.3,0.1-0.6,0.2-0.8,0.2
			c-1.8,0.6-2.4,1.6-3.1,3.5l-0.2,0.5l-0.5-0.3C95.5,123.1,94.7,122.8,93.7,122.8z"/>
	</g>
</g>
<g>
	<g>
		<path class="st1" d="M83.3,123.4c0.3,0.1,0.5,0.2,0.8,0.4c1.7,0.9,3,3.4,1.9,6.6l-0.4,1c-1.5,2.8-5.3,5.5-13.7,7.2
			c-4.5-7.3-5.1-11.9-4.1-14.9l0.4-1c1.6-2.9,4.3-3.7,6.1-3.1c0.3,0.1,0.6,0.2,0.8,0.3c2,0.9,2.6,2.2,3.1,4
			C80,123,81.3,122.5,83.3,123.4"/>
		<path class="st0" d="M71.6,139l-0.2-0.3c-4-6.6-5.4-11.6-4.1-15.3l0.5-1c1.7-3.2,4.6-4,6.6-3.3c0.3,0.1,0.6,0.2,0.9,0.3
			c2,0.9,2.7,2.2,3.2,3.7c1.5-0.7,2.9-1.1,4.9-0.2h0c0.3,0.1,0.5,0.3,0.8,0.4c1.8,1,3.3,3.7,2.1,7.1l-0.5,1c-1.8,3.5-6.4,5.9-14,7.4
			L71.6,139z M73.1,119.8c-1.5,0-3.3,0.9-4.5,3l-0.4,1c-1.2,3.3,0.1,8,3.9,14.2c7.1-1.5,11.4-3.7,13.1-6.9l0.4-1
			c1-2.9-0.2-5.1-1.7-6c-0.3-0.1-0.5-0.3-0.7-0.4h0c-1.7-0.8-2.9-0.5-4.7,0.4l-0.5,0.2l-0.1-0.5c-0.6-1.9-1.1-2.9-2.9-3.7
			c-0.2-0.1-0.5-0.2-0.8-0.3C73.8,119.8,73.5,119.8,73.1,119.8z"/>
	</g>
</g>
<g>
	<g>
		<path class="st1" d="M59.5,118.8c0.3-0.1,0.5-0.2,0.8-0.3c1.8-0.5,4.5,0.4,5.9,3.5l0.4,1c0.8,3.1-0.1,7.6-5.1,14.6
			c-8.3-2.3-11.9-5.2-13.2-8.1l-0.4-1c-0.9-3.2,0.6-5.6,2.3-6.4c0.3-0.1,0.6-0.2,0.8-0.3c2.1-0.7,3.4-0.2,5,0.7
			C56.7,120.8,57.4,119.6,59.5,118.8"/>
		<path class="st0" d="M61.7,138.2l-0.3-0.1c-7.5-2-11.9-4.8-13.5-8.3l-0.4-1.1c-1-3.5,0.7-6.1,2.6-7c0.3-0.1,0.6-0.3,0.9-0.4
			c2.1-0.7,3.5-0.3,4.9,0.5c0.6-1.5,1.4-2.8,3.5-3.5h0c0.3-0.1,0.6-0.2,0.9-0.3c2-0.5,4.9,0.4,6.4,3.7l0.4,1.1c1,3.8-0.6,8.7-5.1,15
			L61.7,138.2z M52.9,121.9c-0.5,0-1,0.1-1.7,0.3c-0.2,0.1-0.5,0.2-0.8,0.3c-1.6,0.7-2.9,2.9-2.1,5.9l0.4,1
			c1.4,3.2,5.6,5.8,12.6,7.7c4.2-6,5.7-10.6,4.8-14l-0.4-1c-1.3-2.8-3.7-3.6-5.4-3.2c-0.3,0.1-0.6,0.2-0.8,0.2
			c-1.8,0.6-2.4,1.6-3.1,3.5l-0.2,0.5l-0.5-0.3C54.8,122.3,53.9,121.9,52.9,121.9z"/>
	</g>
</g>
<g>
	<g>
		<path class="st1" d="M118.1,106.5c0.3,0.1,0.5,0.2,0.8,0.4c1.7,0.9,3,3.4,1.9,6.6l-0.4,1c-1.5,2.8-5.3,5.5-13.7,7.2
			c-4.5-7.3-5.1-11.9-4.1-14.9l0.4-1c1.6-2.9,4.3-3.7,6.1-3.1c0.3,0.1,0.6,0.2,0.8,0.3c2,0.9,2.6,2.2,3.1,4
			C114.7,106.1,116.1,105.7,118.1,106.5"/>
		<path class="st0" d="M106.4,122.2l-0.2-0.3c-4-6.6-5.4-11.6-4.1-15.3l0.5-1c1.7-3.2,4.6-4,6.6-3.3c0.3,0.1,0.6,0.2,0.9,0.3
			c2,0.9,2.7,2.2,3.2,3.7c1.5-0.7,2.9-1.1,4.9-0.2l0,0c0.3,0.1,0.5,0.3,0.8,0.4c1.8,1,3.3,3.7,2.1,7.1l-0.5,1
			c-1.8,3.5-6.4,5.9-14,7.4L106.4,122.2z M107.9,102.9c-1.5,0-3.3,0.9-4.5,3l-0.4,1c-1.2,3.3,0.1,8,3.9,14.2
			c7.1-1.5,11.4-3.7,13.1-6.9l0.4-1c1-2.9-0.2-5.1-1.7-6c-0.3-0.1-0.5-0.3-0.7-0.4c-1.7-0.8-2.9-0.5-4.7,0.4l-0.5,0.2l-0.1-0.5
			c-0.6-1.9-1.1-2.9-2.9-3.7c-0.2-0.1-0.5-0.2-0.8-0.3C108.6,103,108.3,102.9,107.9,102.9z"/>
	</g>
</g>
<g>
	<g>
		<path class="st1" d="M82.5,80.6c0.3-0.1,0.5-0.2,0.8-0.3c1.8-0.5,4.5,0.4,5.9,3.5l0.4,1c0.8,3.1-0.1,7.6-5.1,14.6
			c-8.3-2.3-11.9-5.2-13.2-8.1l-0.4-1c-0.9-3.2,0.6-5.6,2.3-6.4c0.3-0.1,0.6-0.2,0.8-0.3c2.1-0.7,3.4-0.2,5,0.7
			C79.7,82.6,80.4,81.4,82.5,80.6"/>
		<path class="st0" d="M84.7,100l-0.3-0.1c-7.5-2-11.9-4.8-13.5-8.3l-0.4-1.1c-1-3.5,0.7-6.1,2.6-7c0.3-0.1,0.6-0.3,0.9-0.4
			c2.1-0.7,3.5-0.3,4.9,0.5c0.6-1.5,1.4-2.8,3.5-3.5l0,0c0.3-0.1,0.6-0.2,0.9-0.3c2-0.5,4.9,0.4,6.4,3.7l0.4,1.1
			c1,3.8-0.6,8.7-5.1,15L84.7,100z M75.9,83.7c-0.5,0-1,0.1-1.7,0.3c-0.2,0.1-0.5,0.2-0.8,0.3c-1.6,0.7-2.9,2.9-2.1,5.9l0.4,1
			c1.4,3.2,5.6,5.8,12.6,7.7c4.2-6,5.7-10.6,4.8-14l-0.4-1c-1.3-2.8-3.7-3.6-5.4-3.2c-0.3,0.1-0.6,0.2-0.8,0.2
			c-1.8,0.6-2.4,1.6-3.1,3.5L79.3,85l-0.5-0.3C77.8,84.1,76.9,83.7,75.9,83.7z"/>
	</g>
</g>
<g>
	<g>
		<path class="st1" d="M96.8,110.3c0.2,0.2,0.5,0.3,0.7,0.5c1.4,1.3,2.2,3.9,0.5,6.8l-0.6,0.9c-2.1,2.4-6.3,4.2-14.9,4.1
			c-2.8-8.1-2.5-12.7-0.8-15.4l0.6-0.9c2.2-2.5,5-2.7,6.6-1.7c0.3,0.2,0.5,0.3,0.7,0.5c1.8,1.3,2.1,2.7,2.2,4.5
			C93.6,109.2,95,109,96.8,110.3"/>
		<path class="st0" d="M83,123.2c-0.2,0-0.4,0-0.6,0l-0.3,0l-0.1-0.3c-2.6-7.3-2.8-12.5-0.8-15.8l0.7-0.9c2.4-2.8,5.4-2.9,7.2-1.9
			c0.3,0.2,0.5,0.3,0.8,0.5c1.8,1.3,2.2,2.7,2.4,4.3c1.6-0.4,3.1-0.4,4.9,0.8l0,0c0.2,0.2,0.5,0.4,0.7,0.6c1.6,1.4,2.4,4.3,0.6,7.4
			l-0.7,0.9C95.2,121.7,90.4,123.2,83,123.2z M82.7,122.3c0.1,0,0.2,0,0.3,0c7.1,0,11.7-1.3,13.9-4l0.6-0.9c1.6-2.6,0.9-5.1-0.4-6.2
			c-0.2-0.2-0.4-0.4-0.7-0.5l0,0c-1.6-1.1-2.7-1.1-4.6-0.6l-0.5,0.1l0-0.5c-0.1-2-0.5-3.1-2-4.2c-0.2-0.2-0.4-0.3-0.7-0.5
			c-1.5-0.9-4-0.7-6,1.6l-0.6,0.9C80.1,110.5,80.3,115.4,82.7,122.3z"/>
	</g>
</g>
<g>
	<g>
		<path class="st1" d="M55.3,100.8c0.2-0.2,0.4-0.3,0.7-0.5c1.6-1.1,4.4-1.1,6.7,1.3l0.7,0.9c1.8,2.6,2.4,7.2,0.1,15.5
			c-8.6,0.6-12.9-0.9-15.1-3.2l-0.7-0.9c-1.9-2.8-1.3-5.5,0.1-6.8c0.2-0.2,0.4-0.4,0.7-0.6c1.7-1.4,3.1-1.3,5-1
			C53.4,103.6,53.6,102.2,55.3,100.8"/>
		<path class="st0" d="M59.9,118.5c-5.7,0-9.6-1.2-11.8-3.5l-0.7-0.9c-2.1-3-1.4-5.9,0.1-7.4c0.2-0.2,0.5-0.4,0.7-0.6
			c1.7-1.4,3.2-1.4,4.8-1.1c0.1-1.6,0.4-3.1,2.1-4.5h0c0.2-0.2,0.5-0.4,0.7-0.5c1.7-1.2,4.8-1.2,7.3,1.4l0.7,0.9
			c2.2,3.2,2.3,8.4,0.2,15.9l-0.1,0.3l-0.3,0C62.2,118.5,61,118.5,59.9,118.5z M51.5,105.7c-1,0-1.9,0.3-2.8,1.1
			c-0.2,0.2-0.4,0.4-0.6,0.6c-1.2,1.2-1.8,3.7,0,6.3l0.7,0.8c2.4,2.6,7.2,3.6,14.4,3.1c1.9-7,1.9-11.9-0.1-14.8l-0.7-0.8
			c-2.1-2.2-4.7-2.2-6.1-1.2c-0.2,0.2-0.5,0.3-0.7,0.5l0,0c-1.5,1.2-1.8,2.4-1.8,4.3l0,0.5l-0.5-0.1C52.6,105.8,52,105.7,51.5,105.7
			z"/>
	</g>
</g>
<g>
	<g>
		<path class="st1" d="M118.8,88c0.3-0.1,0.5-0.2,0.8-0.3c1.8-0.6,4.5,0.1,6.1,3l0.4,1c1.1,3,0.4,7.6-4,14.9
			c-8.4-1.7-12.2-4.3-13.7-7.1l-0.4-1c-1.1-3.2,0.2-5.6,1.9-6.6c0.3-0.2,0.5-0.3,0.8-0.4c2-0.9,3.4-0.4,5,0.4
			C116.2,90.2,116.8,88.9,118.8,88"/>
		<path class="st0" d="M122.4,107.2l-0.3-0.1c-7.6-1.5-12.2-3.9-14-7.3l-0.5-1c-1.2-3.4,0.2-6.1,2.1-7.1c0.3-0.2,0.6-0.3,0.8-0.4
			c2-0.9,3.5-0.5,4.9,0.2c0.5-1.5,1.2-2.9,3.2-3.8c0.3-0.1,0.5-0.2,0.9-0.3c2-0.7,4.9,0.1,6.6,3.3l0.5,1c1.3,3.7,0,8.7-4,15.3
			L122.4,107.2z M112.8,91.6c-0.6,0-1.2,0.1-1.9,0.5c-0.2,0.1-0.5,0.2-0.7,0.4c-1.5,0.9-2.7,3.1-1.7,6l0.4,1c1.7,3.1,6,5.3,13.1,6.8
			c3.7-6.3,5-10.9,3.8-14.3l-0.4-1c-1.5-2.7-3.9-3.4-5.6-2.8c-0.3,0.1-0.5,0.2-0.8,0.3h0c-1.7,0.8-2.3,1.8-2.9,3.7l-0.1,0.5
			l-0.5-0.2C114.5,91.9,113.6,91.6,112.8,91.6z"/>
	</g>
</g>
<g>
	<g>
		<path class="st1" d="M98.7,91.1c0.3-0.1,0.5-0.2,0.8-0.3c1.8-0.5,4.5,0.4,5.9,3.5l0.4,1c0.8,3.1-0.1,7.6-5.1,14.6
			c-8.3-2.3-11.9-5.2-13.2-8.1l-0.4-1c-0.9-3.2,0.6-5.6,2.3-6.4c0.3-0.1,0.6-0.2,0.8-0.3c2.1-0.7,3.4-0.2,5,0.7
			C96,93.1,96.6,91.8,98.7,91.1"/>
		<path class="st0" d="M100.9,110.5l-0.3-0.1c-7.5-2-11.9-4.8-13.5-8.3l-0.4-1.1c-1-3.5,0.7-6.1,2.6-7c0.3-0.1,0.6-0.3,0.9-0.4
			c2.1-0.7,3.5-0.3,4.9,0.5c0.6-1.5,1.4-2.8,3.5-3.5l0,0c0.3-0.1,0.6-0.2,0.9-0.3c2-0.5,4.9,0.4,6.4,3.7l0.4,1.1
			c1,3.8-0.6,8.7-5.1,15L100.9,110.5z M92.1,94.2c-0.5,0-1,0.1-1.7,0.3c-0.2,0.1-0.5,0.2-0.8,0.3c-1.6,0.7-2.9,2.9-2.1,5.9l0.4,1
			c1.4,3.2,5.6,5.8,12.6,7.7c4.2-6,5.7-10.6,4.8-14l-0.4-1c-1.3-2.8-3.7-3.6-5.4-3.2c-0.3,0.1-0.6,0.2-0.8,0.2
			c-1.8,0.6-2.4,1.6-3.1,3.5l-0.2,0.5l-0.5-0.3C94,94.6,93.1,94.2,92.1,94.2z"/>
	</g>
</g>
<g>
	<g>
		<path class="st1" d="M80.1,98.2c0.3,0.1,0.5,0.2,0.8,0.4c1.7,0.9,3,3.4,1.9,6.6l-0.4,1c-1.5,2.8-5.3,5.5-13.7,7.2
			c-4.5-7.3-5.1-11.9-4.1-14.9l0.4-1c1.6-2.9,4.3-3.7,6.1-3.1c0.3,0.1,0.6,0.2,0.8,0.3c2,0.9,2.6,2.2,3.1,4
			C76.8,97.8,78.1,97.3,80.1,98.2"/>
		<path class="st0" d="M68.4,113.9l-0.2-0.3c-4-6.6-5.4-11.6-4.1-15.3l0.5-1c1.7-3.2,4.6-4,6.6-3.3c0.3,0.1,0.6,0.2,0.9,0.3
			c2,0.9,2.7,2.2,3.2,3.7c1.5-0.7,2.9-1.1,4.9-0.2c0.3,0.1,0.5,0.3,0.8,0.4c1.8,1,3.3,3.7,2.1,7.1l-0.5,1c-1.8,3.5-6.4,5.9-14,7.4
			L68.4,113.9z M69.9,94.6c-1.5,0-3.3,0.9-4.5,3l-0.4,1c-1.2,3.3,0.1,8,3.9,14.2c7.1-1.5,11.4-3.7,13.1-6.9l0.4-1
			c1-2.9-0.2-5.1-1.7-6c-0.3-0.1-0.5-0.3-0.7-0.4l0,0c-1.7-0.8-2.9-0.5-4.7,0.4l-0.5,0.2l-0.1-0.5c-0.6-1.9-1.1-2.9-2.9-3.7
			c-0.2-0.1-0.5-0.2-0.8-0.3C70.6,94.7,70.3,94.6,69.9,94.6z"/>
	</g>
</g>
<g>
	<g>
		<path class="st1" d="M124.2,73.9c0.3,0.1,0.5,0.2,0.8,0.4c1.7,0.9,3,3.4,1.9,6.6l-0.4,1c-1.5,2.8-5.3,5.5-13.7,7.2
			c-4.5-7.3-5.1-11.9-4.1-14.9l0.4-1c1.6-2.9,4.3-3.7,6.1-3.1c0.3,0.1,0.6,0.2,0.8,0.3c2,0.9,2.6,2.2,3.1,4
			C120.8,73.4,122.1,73,124.2,73.9"/>
		<path class="st0" d="M112.5,89.5l-0.2-0.3c-4-6.6-5.4-11.6-4.1-15.3l0.5-1c1.7-3.2,4.6-4,6.6-3.3c0.3,0.1,0.6,0.2,0.9,0.3
			c2,0.9,2.7,2.2,3.2,3.7c1.5-0.7,2.9-1.1,4.9-0.2h0c0.3,0.1,0.5,0.2,0.8,0.4c1.8,1,3.3,3.7,2.1,7.1l-0.5,1c-1.8,3.5-6.4,5.9-14,7.4
			L112.5,89.5z M113.9,70.2c-1.5,0-3.3,0.9-4.5,3l-0.4,1c-1.2,3.3,0.1,8,3.9,14.2c7.1-1.5,11.4-3.7,13.1-6.9l0.4-1
			c1-2.9-0.2-5.1-1.7-6c-0.3-0.1-0.5-0.3-0.7-0.4h0c-1.7-0.8-2.9-0.5-4.7,0.4l-0.5,0.2l-0.1-0.5c-0.6-1.9-1.1-2.9-2.9-3.7
			c-0.2-0.1-0.5-0.2-0.8-0.3C114.7,70.3,114.3,70.2,113.9,70.2z"/>
	</g>
</g>
<g>
	<g>
		<path class="st1" d="M120.2,55.9c0.3,0.1,0.5,0.2,0.8,0.4c1.7,0.9,3,3.4,1.9,6.6l-0.4,1c-1.5,2.8-5.3,5.5-13.7,7.2
			c-4.5-7.3-5.1-11.9-4.1-14.9l0.4-1c1.6-2.9,4.3-3.7,6.1-3.1c0.3,0.1,0.6,0.2,0.8,0.3c2,0.9,2.6,2.2,3.1,4
			C116.9,55.5,118.2,55,120.2,55.9"/>
		<path class="st0" d="M108.6,71.6l-0.2-0.3c-4-6.6-5.4-11.6-4.1-15.3l0.5-1c1.7-3.2,4.6-4,6.6-3.3c0.3,0.1,0.6,0.2,0.9,0.3
			c2,0.9,2.7,2.2,3.2,3.7c1.5-0.7,2.9-1.1,4.9-0.2v0c0.3,0.1,0.5,0.3,0.8,0.4c1.8,1,3.3,3.7,2.1,7.1l-0.5,1c-1.8,3.5-6.4,5.9-14,7.4
			L108.6,71.6z M110,52.3c-1.5,0-3.3,0.9-4.5,3l-0.4,1c-1.2,3.3,0.1,8,3.9,14.2c7.1-1.5,11.4-3.7,13.1-6.9l0.4-1
			c1-2.9-0.2-5.1-1.7-6c-0.3-0.1-0.5-0.3-0.7-0.4l0,0c-1.7-0.8-2.9-0.5-4.7,0.4l-0.5,0.2l-0.1-0.5c-0.6-1.9-1.1-2.9-2.9-3.7
			c-0.2-0.1-0.5-0.2-0.8-0.3C110.8,52.4,110.4,52.3,110,52.3z"/>
	</g>
</g>
<g>
	<g>
		<path class="st1" d="M56.7,62.3c0.3-0.1,0.5-0.2,0.8-0.3c1.8-0.5,4.5,0.4,5.9,3.5l0.4,1c0.8,3.1-0.1,7.6-5.1,14.6
			c-8.3-2.3-11.9-5.2-13.2-8.1l-0.4-1c-0.9-3.2,0.6-5.6,2.3-6.4c0.3-0.1,0.6-0.2,0.8-0.3c2.1-0.7,3.4-0.2,5,0.7
			C53.9,64.2,54.6,63,56.7,62.3"/>
		<path class="st0" d="M58.9,81.6l-0.3-0.1c-7.5-2-11.9-4.8-13.5-8.3l-0.4-1.1c-1-3.5,0.7-6.1,2.6-7c0.3-0.1,0.6-0.3,0.9-0.4
			c2.1-0.7,3.5-0.3,4.9,0.5c0.6-1.5,1.4-2.8,3.5-3.5l0,0c0.3-0.1,0.6-0.2,0.9-0.3c2-0.5,4.9,0.4,6.4,3.7l0.4,1.1
			c1,3.8-0.6,8.7-5.1,15L58.9,81.6z M50.1,65.4c-0.5,0-1,0.1-1.7,0.3c-0.2,0.1-0.5,0.2-0.8,0.3c-1.6,0.7-2.9,2.9-2.1,5.9l0.4,1
			c1.4,3.2,5.6,5.8,12.6,7.7c4.2-6,5.7-10.6,4.8-14l-0.4-1c-1.3-2.8-3.7-3.6-5.4-3.2c-0.3,0.1-0.6,0.2-0.8,0.2l0,0
			c-1.8,0.6-2.4,1.6-3.1,3.5l-0.2,0.5l-0.5-0.3C51.9,65.7,51.1,65.4,50.1,65.4z"/>
	</g>
</g>
<g>
	<g>
		<path class="st1" d="M87.5,68.9c0.2,0.2,0.5,0.3,0.7,0.5c1.4,1.3,2.2,3.9,0.5,6.8L88,77.2c-2.1,2.4-6.3,4.2-14.9,4.1
			c-2.8-8.1-2.5-12.7-0.8-15.4l0.6-0.9c2.2-2.5,5-2.7,6.6-1.7c0.3,0.2,0.5,0.3,0.7,0.5c1.8,1.3,2.1,2.7,2.2,4.5
			C84.3,67.8,85.7,67.7,87.5,68.9"/>
		<path class="st0" d="M73.8,81.8c-0.2,0-0.4,0-0.6,0l-0.3,0l-0.1-0.3c-2.6-7.3-2.8-12.5-0.8-15.8l0.7-0.9c2.4-2.8,5.4-2.9,7.2-1.9
			c0.3,0.2,0.5,0.3,0.8,0.5c1.8,1.3,2.2,2.7,2.4,4.3c1.6-0.4,3.1-0.4,4.9,0.8l0,0c0.2,0.2,0.5,0.4,0.7,0.6c1.6,1.4,2.4,4.3,0.6,7.4
			l-0.7,0.9C85.9,80.4,81.2,81.8,73.8,81.8z M73.5,80.9c0.1,0,0.2,0,0.3,0c7.1,0,11.7-1.3,13.9-4l0.6-0.9c1.6-2.6,0.9-5.1-0.4-6.2
			c-0.2-0.2-0.4-0.4-0.7-0.5c-1.5-1.1-2.7-1.1-4.6-0.6l-0.5,0.1l0-0.5c-0.1-2-0.5-3.1-2-4.2c-0.2-0.2-0.4-0.3-0.7-0.5
			c-1.5-0.9-4-0.7-6,1.6l-0.6,0.9C70.8,69.2,71.1,74,73.5,80.9z"/>
	</g>
</g>
<g>
	<g>
		<path class="st1" d="M99.9,70.3c0.3-0.1,0.5-0.2,0.8-0.3c1.8-0.6,4.5,0.1,6.1,3l0.4,1c1.1,3,0.4,7.6-4,14.9
			c-8.4-1.7-12.2-4.3-13.7-7.1l-0.4-1c-1.1-3.2,0.2-5.6,1.9-6.6c0.3-0.2,0.5-0.3,0.8-0.4c2-0.9,3.4-0.4,5,0.4
			C97.3,72.5,97.9,71.2,99.9,70.3"/>
		<path class="st0" d="M103.5,89.5l-0.3-0.1c-7.6-1.5-12.2-3.9-14-7.3l-0.5-1c-1.2-3.4,0.2-6.1,2.1-7.1c0.3-0.2,0.6-0.3,0.8-0.4
			c2-0.9,3.5-0.5,4.9,0.2c0.5-1.5,1.2-2.9,3.2-3.8l0,0c0.3-0.1,0.6-0.2,0.9-0.3c2-0.7,4.9,0.1,6.6,3.3l0.5,1c1.3,3.7,0,8.7-4,15.3
			L103.5,89.5z M93.8,73.9c-0.6,0-1.2,0.1-1.9,0.5c-0.2,0.1-0.5,0.2-0.7,0.4c-1.5,0.9-2.7,3.1-1.7,6l0.4,1c1.7,3.1,6,5.3,13.1,6.8
			c3.7-6.3,5-10.9,3.8-14.3l-0.4-1c-1.5-2.7-3.9-3.3-5.6-2.8c-0.3,0.1-0.5,0.2-0.8,0.3l0,0c-1.7,0.8-2.3,1.8-2.9,3.7l-0.1,0.5
			l-0.5-0.2C95.5,74.2,94.7,73.9,93.8,73.9z"/>
	</g>
</g>
<g>
	<g>
		<path class="st1" d="M94.3,51.5c0.3-0.1,0.5-0.2,0.8-0.3c1.8-0.5,4.5,0.4,5.9,3.5l0.4,1c0.8,3.1-0.1,7.6-5.1,14.6
			c-8.3-2.3-11.9-5.2-13.2-8.1l-0.4-1c-0.9-3.2,0.6-5.6,2.3-6.4c0.3-0.1,0.6-0.2,0.8-0.3c2.1-0.7,3.4-0.2,5,0.7
			C91.6,53.5,92.3,52.2,94.3,51.5"/>
		<path class="st0" d="M96.6,70.9l-0.3-0.1c-7.5-2-11.9-4.8-13.5-8.3l-0.4-1.1c-1-3.5,0.7-6.1,2.6-7c0.3-0.1,0.6-0.3,0.9-0.4
			c2.1-0.7,3.5-0.3,4.9,0.5c0.6-1.5,1.4-2.8,3.5-3.5c0.3-0.1,0.6-0.2,0.9-0.3c2-0.5,4.9,0.4,6.4,3.7l0.4,1.1c1,3.8-0.6,8.7-5.1,15
			L96.6,70.9z M87.8,54.6c-0.5,0-1,0.1-1.7,0.3c-0.2,0.1-0.5,0.2-0.8,0.3c-1.6,0.7-2.9,2.9-2.1,5.9l0.4,1c1.4,3.2,5.6,5.8,12.6,7.7
			c4.2-6,5.7-10.6,4.8-14l-0.4-1c-1.3-2.8-3.7-3.6-5.4-3.2c-0.3,0.1-0.6,0.2-0.8,0.2h0c-1.8,0.6-2.4,1.6-3.1,3.5l-0.2,0.5l-0.5-0.3
			C89.6,54.9,88.7,54.6,87.8,54.6z"/>
	</g>
</g>
<g>
	<g>
		<path class="st1" d="M79.1,47.5c0.3,0.1,0.5,0.2,0.8,0.4c1.7,0.9,3,3.4,1.9,6.6l-0.4,1c-1.5,2.8-5.3,5.5-13.7,7.2
			c-4.5-7.3-5.1-11.9-4.1-14.9l0.4-1c1.6-2.9,4.3-3.7,6.1-3.1c0.3,0.1,0.6,0.2,0.8,0.3c2,0.9,2.6,2.2,3.1,4
			C75.8,47.1,77.1,46.6,79.1,47.5"/>
		<path class="st0" d="M67.5,63.1l-0.2-0.3c-4-6.6-5.4-11.6-4.1-15.3l0.5-1c1.7-3.2,4.6-4,6.6-3.3c0.3,0.1,0.6,0.2,0.9,0.3
			c2,0.9,2.7,2.2,3.2,3.7c1.5-0.7,2.9-1.1,4.9-0.2h0c0.3,0.1,0.5,0.2,0.8,0.4c1.8,1,3.3,3.7,2.1,7.1l-0.5,1c-1.8,3.5-6.4,5.9-14,7.4
			L67.5,63.1z M68.9,43.9c-1.5,0-3.3,0.9-4.5,3l-0.4,1c-1.2,3.3,0.1,8,3.9,14.2c7.1-1.5,11.4-3.7,13.1-6.9l0.4-1
			c1-2.9-0.2-5.1-1.7-6c-0.3-0.1-0.5-0.3-0.7-0.4h0c-1.7-0.8-2.9-0.5-4.7,0.4l-0.5,0.2L73.7,48c-0.6-1.9-1.1-2.9-2.9-3.7
			c-0.2-0.1-0.5-0.2-0.8-0.3C69.7,43.9,69.3,43.9,68.9,43.9z"/>
	</g>
</g>
<g>
	<g>
		<path class="st1" d="M56.7,45.4c0.3,0.1,0.5,0.1,0.8,0.2c1.8,0.6,3.6,2.8,3.1,6.1l-0.2,1.1c-0.9,3.1-4.1,6.4-12.1,9.7
			c-5.8-6.3-7.3-10.7-6.9-13.9l0.2-1.1c1-3.2,3.5-4.4,5.4-4.2c0.3,0,0.6,0.1,0.9,0.1c2.1,0.5,3,1.6,3.8,3.3
			C53.4,45.6,54.6,45,56.7,45.4"/>
		<path class="st0" d="M48.3,63l-0.2-0.2c-5.2-5.7-7.5-10.4-7-14.2l0.2-1.1c1.1-3.5,3.8-4.8,5.9-4.5c0.3,0,0.6,0.1,0.9,0.2
			c2.2,0.5,3.1,1.6,3.9,3.1c1.3-0.9,2.6-1.6,4.8-1.1c0.3,0.1,0.6,0.1,0.9,0.2c2,0.7,3.9,3,3.4,6.5l-0.2,1.1c-1.1,3.8-5.2,7-12.3,10
			L48.3,63z M46.7,43.8c-1.7,0-3.7,1.2-4.5,3.9l-0.2,1c-0.5,3.5,1.6,7.8,6.5,13.2c6.7-2.8,10.5-5.9,11.5-9.3l0.2-1
			c0.4-3-1.2-5-2.8-5.6c-0.3-0.1-0.6-0.2-0.8-0.2l0,0c-1.9-0.4-2.9,0.1-4.5,1.3l-0.4,0.3L51.5,47c-0.9-1.7-1.7-2.6-3.5-3.1
			c-0.3-0.1-0.5-0.1-0.8-0.1C47,43.8,46.9,43.8,46.7,43.8z"/>
	</g>
</g>
<g>
	<g>
		<path class="st1" d="M136.3,127.9c0.2-0.2,0.3-0.4,0.6-0.7c1.3-1.4,4-2.1,6.8-0.4l0.9,0.7c2.4,2.1,4.1,6.4,3.9,15
			c-8.2,2.7-12.7,2.3-15.4,0.6l-0.9-0.7c-2.5-2.2-2.6-5-1.6-6.6c0.2-0.3,0.3-0.5,0.5-0.7c1.3-1.8,2.7-2,4.6-2.2
			C135.1,131.1,135,129.7,136.3,127.9"/>
		<path class="st0" d="M138.5,144.9c-2.3,0-4.3-0.5-5.8-1.4l-0.9-0.7c-2.7-2.4-2.8-5.4-1.7-7.2c0.2-0.3,0.3-0.5,0.5-0.8
			c1.3-1.8,2.8-2.2,4.4-2.3c-0.3-1.6-0.4-3.1,0.9-4.9l0,0c0.2-0.2,0.4-0.5,0.6-0.7c1.4-1.6,4.3-2.4,7.4-0.4l0.9,0.7
			c3,2.6,4.3,7.6,4.1,15.3l0,0.3l-0.3,0.1C144.6,144.2,141.3,144.9,138.5,144.9z M140.3,126.2c-1.3,0-2.4,0.5-3.1,1.3
			c-0.2,0.2-0.4,0.4-0.5,0.6v0c-1.1,1.5-1.1,2.7-0.7,4.6l0.1,0.5l-0.5,0c-2,0.1-3.1,0.4-4.2,2c-0.2,0.2-0.3,0.4-0.5,0.7
			c-0.9,1.5-0.8,4,1.5,6.1l0.9,0.6c3,1.9,7.8,1.7,14.8-0.6c0.2-7.3-1.1-12-3.8-14.3l-0.9-0.6C142.3,126.5,141.2,126.2,140.3,126.2z"
			/>
	</g>
</g>
<g>
	<g>
		<path class="st1" d="M61.1,80.7c0.3-0.1,0.5-0.2,0.8-0.3c1.8-0.5,4.5,0.4,5.9,3.5l0.4,1c0.8,3.1-0.1,7.6-5.1,14.6
			c-8.3-2.3-11.9-5.2-13.2-8.1l-0.4-1c-0.9-3.2,0.6-5.6,2.3-6.4c0.3-0.1,0.6-0.2,0.8-0.3c2.1-0.7,3.4-0.2,5,0.7
			C58.4,82.7,59.1,81.5,61.1,80.7"/>
		<path class="st0" d="M63.3,100.1L63,100c-7.5-2-11.9-4.8-13.5-8.3l-0.4-1.1c-1-3.5,0.7-6.1,2.6-7c0.3-0.1,0.6-0.3,0.9-0.4
			c2.1-0.7,3.5-0.3,4.9,0.5c0.6-1.5,1.4-2.8,3.5-3.5l0,0c0.3-0.1,0.6-0.2,0.9-0.3c2-0.5,4.9,0.4,6.4,3.7l0.4,1.1
			c1,3.8-0.6,8.7-5.1,15L63.3,100.1z M54.6,83.8c-0.5,0-1,0.1-1.7,0.3c-0.2,0.1-0.5,0.2-0.8,0.3c-1.6,0.7-2.9,2.9-2.1,5.9l0.4,1
			c1.4,3.2,5.6,5.8,12.6,7.7c4.2-6,5.7-10.6,4.8-14l-0.4-1c-1.3-2.8-3.7-3.6-5.4-3.2c-0.3,0.1-0.6,0.2-0.8,0.2
			c-1.8,0.6-2.4,1.6-3.1,3.5L58,85.1l-0.5-0.3C56.4,84.2,55.5,83.8,54.6,83.8z"/>
	</g>
</g>
<g>
	<path class="st0" d="M124.9,70.4v59.2c0,3.9-3.2,7-7,7H55.1c-3.9,0-7-3.2-7-7V70.4H124.9 M128.9,66.4H44v63.2c0,6.1,5,11,11,11
		h62.8c6.1,0,11-5,11-11V66.4L128.9,66.4z"/>
</g>
<g class="st2">
	<g>
		<path class="st0" d="M117.9,140.6H55.1c-6.1,0-11-5-11-11V66.4h84.9v63.2C128.9,135.7,123.9,140.6,117.9,140.6z"/>
	</g>
</g>
<path class="st3" d="M46.7,37.8L51.2,25c1-2.7,3.5-4.3,5.7-3.5l0,0c2.2,0.8,4.8-0.8,5.7-3.5l0,0c1-2.7,4.8-7.7,7-6.9l16.4,5.8
	c2.2,0.8,2.5,5.6,1.6,8.3L87,26.9c-1,2.7,0,5.5,2.3,6.3l39.6,14c2.2,0.8,3.2,3.6,2.3,6.3l-4.4,12.5L46.7,37.8z"/>
<g>
	<g>
		<path class="st1" d="M30,128.9c0.2,0.1,0.5,0.3,0.8,0.5c1.6,1.1,2.7,3.6,1.4,6.7l-0.5,1c-1.7,2.7-5.7,5-14.2,6
			c-3.9-7.7-4.1-12.3-2.8-15.2l0.5-1c1.8-2.8,4.6-3.3,6.3-2.6c0.3,0.1,0.6,0.2,0.8,0.4c1.9,1,2.4,2.4,2.8,4.2
			C26.7,128.2,28.1,127.9,30,128.9"/>
		<path class="st0" d="M17.2,143.6l-0.1-0.3c-3.5-6.9-4.4-12-2.9-15.6l0.5-1c2-3.1,4.9-3.6,6.9-2.8c0.3,0.1,0.6,0.3,0.8,0.4
			c2,1,2.5,2.4,2.9,4c1.5-0.6,3-0.8,4.9,0.2h0c0.3,0.1,0.5,0.3,0.8,0.5c1.7,1.2,3,3.9,1.5,7.2l-0.5,1c-2.1,3.3-6.9,5.4-14.6,6.3
			L17.2,143.6z M19.8,124.5c-1.4,0-3.1,0.8-4.4,2.7l-0.5,0.9c-1.4,3.2-0.5,8,2.7,14.5c7.2-0.9,11.7-2.8,13.6-5.8l0.5-0.9
			c1.2-2.8,0.2-5.1-1.2-6.1c-0.2-0.2-0.5-0.3-0.7-0.4l0,0c-1.7-0.9-2.8-0.7-4.7,0l-0.5,0.2l-0.1-0.5c-0.4-1.9-0.9-3-2.6-3.9
			c-0.2-0.1-0.5-0.2-0.8-0.4C20.8,124.6,20.3,124.5,19.8,124.5z"/>
	</g>
</g>
<g>
	<g>
		<path class="st1" d="M34.3,129.8c0.1-0.3,0.2-0.5,0.3-0.8c0.8-1.7,3.2-3.2,6.4-2.4l1,0.4c2.9,1.3,5.9,4.8,8.2,13.1
			c-7,5-11.5,6-14.6,5.2l-1-0.4c-3.1-1.3-4-4-3.5-5.8c0.1-0.3,0.2-0.6,0.2-0.8c0.7-2.1,2-2.8,3.7-3.4
			C34.2,133.1,33.6,131.8,34.3,129.8"/>
		<path class="st0" d="M37.8,145.9c-0.8,0-1.5-0.1-2.2-0.3l-1.1-0.4c-3.3-1.5-4.3-4.3-3.8-6.4c0.1-0.3,0.2-0.6,0.3-0.9
			c0.7-2.1,2-2.9,3.5-3.5c-0.8-1.4-1.3-2.8-0.6-4.9l0,0c0.1-0.3,0.2-0.6,0.3-0.9c0.9-1.9,3.4-3.5,6.9-2.6l1.1,0.4
			c3.6,1.6,6.4,5.9,8.5,13.4l0.1,0.3l-0.3,0.2C45.4,144.1,41.2,145.9,37.8,145.9z M34.8,129.9c-0.6,1.8-0.3,2.9,0.8,4.6l0.3,0.4
			l-0.5,0.2c-1.8,0.7-2.8,1.4-3.5,3.2c-0.1,0.2-0.2,0.5-0.2,0.8c-0.4,1.7,0.4,4.1,3.3,5.3l1,0.4c3.4,0.9,8-0.7,13.9-5
			c-2-7-4.6-11.1-7.9-12.5l-1-0.4c-3-0.8-5.1,0.6-5.8,2.2C35,129.4,34.8,129.7,34.8,129.9L34.8,129.9z"/>
	</g>
</g>
</svg>
