<svg xmlns="http://www.w3.org/2000/svg" xmlns:xlink="http://www.w3.org/1999/xlink" viewBox="0 0 500 500"><defs><style>.cls-1{fill:none;}.cls-2{fill:#099;}.cls-3{clip-path:url(#clip-path);}</style><clipPath id="clip-path" transform="translate(0 0)"><path class="cls-1" d="M250,10h1.72A240.07,240.07,0,0,1,343,471.33,238.39,238.39,0,0,1,250,490h-1.72A240.07,240.07,0,0,1,157,28.68,238.41,238.41,0,0,1,250,10"/></clipPath></defs><title>JAB Embryo Icons</title><g id="Layer_1" data-name="Layer 1"><path class="cls-2" d="M250,10h1.72A240.07,240.07,0,0,1,343,471.33,238.39,238.39,0,0,1,250,490h-1.72A240.07,240.07,0,0,1,157,28.68,238.41,238.41,0,0,1,250,10m0-10C112.71,0,1,110.78,0,248.25-1,386.32,110.18,499,248.25,500H250c137.25,0,249-110.78,250-248.25C501,113.68,389.82,1,251.75,0Z" transform="translate(0 0)"/></g><g id="Layer_2" data-name="Layer 2"><g class="cls-3"><path class="cls-2" d="M179.42,252.38c11.32,4,25,7.71,34.37.21,3.87-3.11,6.25-7.67,8.51-12.09l16-31.32c1.22-2.38,2.47-4.91,2.34-7.59-.16-3.05-2.07-5.69-3.29-8.5-4.16-9.66.15-20.57,2-30.91,3.85-21.46-3.75-44.31-18.41-60.48S185.16,75.9,163.51,73.63c-29.78-3.12-61.37,8.14-80.07,31.5S61,163.8,77,189.23c8,12.74,20.71,23.84,21.73,38.83.64,9.31-3.5,18.16-6.23,27.08-12.31,40.32,4.77,84.53,30.52,118a243.93,243.93,0,0,0,91.4,72.73c15.6,7.14,32.28,12.66,49.4,12.93s34.84-5.22,46.77-17.51c13-13.37,17.65-33.21,16.21-51.85s-8.34-36.4-15.86-53.53c8.67,5.09,13.25,14.84,19.56,22.67s17.29,14.25,26,9.33c6.55-3.68,8.63-11.91,12.27-18.49,5.83-10.57,16.33-17.52,25.6-25.24,6.87-5.72,33.15-37.51,14.88-44.71-5.15-2-10.9,0-16,2.11l-23.53,9.49c-8.78,3.54-18.23,7.15-27.5,5.13-9-2-16-8.78-22.42-15.31l-27.33-27.59c-5.53-5.58-11.37-11.8-12.18-19.61,5.88,1,10.07-6.88,7.85-12.44s-8.08-8.67-13.67-10.79c-12.62-4.78-29.27-5.75-37.18,5.15-3.39,4.67-4.4,10.6-5.77,16.21a108.21,108.21,0,0,1-18.64,39.33Z" transform="translate(0 0)"/><path class="cls-2" d="M265.09,280.65c-4.54,0-9-.17-13.47-.4a10.5,10.5,0,1,1,1.09-21c15.9.83,28.93.53,40.83-3.59,12.84-4.45,22.84-13.68,26.75-24.7,3.18-9,2.9-20.43-.81-32.25-1.61-5.14-4.27-10.19-7.08-15.53-4.47-8.48-9.53-18.1-10.63-29.44-1.57-16.22,1.37-30.42,8.75-42.21C323.62,90.63,349,77.9,378.31,77.51c30.83-.4,62.11,9.15,85.72,26.2a10.5,10.5,0,0,1-12.29,17c-19.63-14.17-45.61-22.23-71.53-22.23h-1.63c-17.12.22-39.32,6.7-50.27,24.2-4.93,7.88-6.78,17.38-5.65,29,.7,7.24,4.4,14.25,8.31,21.68,3.13,5.94,6.36,12.07,8.54,19,3.58,11.42,6.58,28.59.56,45.56s-20.85,31-39.67,37.52C288.87,279.54,276.85,280.65,265.09,280.65Z" transform="translate(0 0)"/></g></g></svg>