<?xml version="1.0" encoding="UTF-8" standalone="no"?>
<svg width="142px" height="114px" viewBox="0 0 142 114" version="1.1" xmlns="http://www.w3.org/2000/svg" xmlns:xlink="http://www.w3.org/1999/xlink">
    <!-- Generator: Sketch 42 (36781) - http://www.bohemiancoding.com/sketch -->
    <title>JaB_Logo_Reversed_V1</title>
    <desc>Created with Sketch.</desc>
    <defs></defs>
    <g id="JustABaby---First-Proposal" stroke="none" stroke-width="1" fill="none" fill-rule="evenodd">
        <g id="512" transform="translate(-215.000000, -30.000000)" fill-rule="nonzero">
            <g id="JaB_Logo_Reversed_V1" transform="translate(215.000000, 30.000000)">
                <g id="Layer_1">
                    <path d="M78.15,4.6 C60.6,1.69 39.98,12.89 29.38,26.07 C24.12,32.61 21.56,39.75 19.83,47.99 C14.23,46.34 6.31,48.99 5.07,55.4 C3.83,61.81 10.43,66.08 15.98,66.32 C16.7685453,66.3896035 17.5162101,65.9577971 17.85,65.24 C18.85,76.95 18.25,72.02 21.57,80.24 C28.48,97.5 59.11,108.89 78.16,108.51 L78.15,4.6 Z" id="Shape" fill="#FFC7AD"></path>
                    <path d="M134.8,50.89 C131.577314,50.3403753 128.307562,50.1159149 125.04,50.22 C123.443926,50.4873266 121.869678,50.871697 120.33,51.37 C120.05,37.24 114.16,26.37 104.06,16.32 C103.06,15.32 96.06,9.89 93.24,8.55 C91.31,7.65 77.51,4.1 72,4.16 L72,108.29 C74.4914201,108.544153 76.9979662,108.617678 79.5,108.51 C87.4555188,107.966187 95.1127822,105.266267 101.65,100.7 C113.65,92.44 119.41,83.11 121.65,74.28 C122.22,72.97 123.44,69.59 124.23,68.82 C125.97,69.68 126.49,69.38 128.42,69.52 C131.08,69.72 135.42,69.3 136.97,66.77 C137.6,65.77 138.63,65.42 139.09,59.77 C139.55,54.12 135.69,51.1 134.8,50.89 Z" id="Shape" fill="#F7BA9A"></path>
                    <path d="M85.05,86.97 C85.94,85.2 87.05,82.04 82.86,80.28 C79.25,78.75 68.49,78 60.12,80.28 C51.75,82.56 56.8,89.09 57.89,90.43 C59.8770199,93.0529937 62.6148471,95.0095811 65.74,96.04 C70.3969628,97.3481569 75.3972382,96.4249155 79.28,93.54 C81.7065053,91.8490219 83.6864795,89.5945278 85.05,86.97 Z" id="Shape" fill="#733E64"></path>
                    <path d="M58.38,58.63 C58.11,57.21 57.07,56.63 55.53,56.56 C54.8876768,56.4184581 54.2155811,56.5650624 53.6905505,56.9612393 C53.16552,57.3574162 52.8401317,57.9634921 52.8,58.62 C52.16,61.52 50.56,64.62 47.24,65.11 C45.8823336,65.2968341 44.5006119,65.0408298 43.3,64.38 C42.8458571,64.115899 42.4563884,63.7537615 42.16,63.32 C41.37,62.14 41.46,60.69 41.51,59.23 C41.62,55.77 36.24,55.77 36.13,59.23 C35.9873887,61.6897114 36.60537,64.1337053 37.9,66.23 C37.97,66.4 40.81,70.55 45.09,71.23 C47.4971876,71.5321408 49.9392599,71.0925678 52.09,69.97 C57.22,67.67 59.45,64.25 58.38,58.63 Z" id="Shape" fill="#733E64"></path>
                    <path d="M83.28,58.63 C83.55,57.21 84.59,56.63 86.13,56.56 C86.7723232,56.4184581 87.4444189,56.5650624 87.9694495,56.9612393 C88.49448,57.3574162 88.8198683,57.9634921 88.86,58.62 C89.5,61.52 91.1,64.62 94.42,65.11 C95.7776664,65.2968341 97.1593881,65.0408298 98.36,64.38 C98.8141429,64.115899 99.2036116,63.7537615 99.5,63.32 C100.29,62.14 100.2,60.69 100.15,59.23 C100.04,55.77 105.42,55.77 105.53,59.23 C105.672611,61.6897114 105.05463,64.1337053 103.76,66.23 C103.69,66.4 100.85,70.55 96.57,71.23 C94.1628124,71.5321408 91.7207401,71.0925678 89.57,69.97 C84.44,67.67 82.21,64.25 83.28,58.63 Z" id="Shape" fill="#733E64"></path>
                    <path d="M69.68,113.1 C58.584403,112.981334 47.7007663,110.046227 38.05,104.57 C23.88,96.8 16.5,84.85 15.55,68.1 C13.6168492,68.2100308 11.6786081,68.0074272 9.81,67.5 C6.48,66.64 0.37,63.01 0.22,56.63 C0.07,50.25 3.58,46.63 5.32,44.75 C8.04,41.75 13.66,41.03 16.84,41.97 L17.32,42.13 C20.87,27.13 33.13,5.13 54.61,1.2 C82.16,-3.85 101.66,8.2 110.11,15.86 C121.22,25.92 126.11,35.75 127.98,46.63 C130.817,46.6009454 133.605506,47.3664856 136.03,48.84 C142.03,52.36 141.28,58.22 140.96,60.73 C140.96,61.03 140.88,61.3 140.87,61.54 C140.62,64.75 137.38,71.39 131.05,72.2 C129.357115,72.4257406 127.639155,72.3818635 125.96,72.07 C122.72,82.07 115.96,91.42 105.49,100.42 C95.4156818,108.725956 82.7363174,113.215605 69.68,113.1 L69.68,113.1 Z M17.79,62.85 C19.0928105,62.8498965 20.153578,63.897293 20.17,65.2 C20.4,81.81 26.79,92.99 40.29,100.4 C66.34,114.68 90.01,107.4 102.36,96.81 C112.92,87.81 119.36,78.51 122.01,68.53 C122.183726,67.8781815 122.625894,67.3307024 123.226556,67.0236971 C123.827219,66.7166917 124.529946,66.6790021 125.16,66.92 C126.840368,67.5376677 128.648206,67.7267002 130.42,67.47 C134.08,67 136.11,62.87 136.42,61.22 C137.196729,58.1368934 136.073994,54.8864559 133.56,52.94 L133.56,52.94 C131.410642,51.5931656 128.834559,51.1007842 126.34,51.56 C125.686368,51.69013 125.00812,51.5402385 124.470201,51.1467782 C123.932282,50.7533179 123.58398,50.1523405 123.51,49.49 C122.31,38.9 116.63,29.33 105.64,19.38 C96.11,10.76 79.64,1.38 55.39,5.87 C34.69,9.67 24.07,32 21.87,45.56 C21.5238408,46.6092583 20.78088,47.4814297 19.8,47.99 C19.0177463,48.2957193 18.132272,48.1665084 17.47,47.65 C16.8600055,47.1502502 16.1610805,46.7702522 15.41,46.53 C13.7,46.02 11.41,46.19 8.34,48.37 C6.6,49.61 4.8,52.29 4.9,56.52 C4.99,60.21 9.25,62.58 10.59,62.83 C10.59,62.83 14.27,64 16.87,63.04 C17.159841,62.9250847 17.4682363,62.8640835 17.78,62.86 L17.79,62.85 Z" id="Shape" fill="#733E64"></path>
                    <path d="M73.18,16.19 C60.51,17.5 64.71,34.8 76.55,31.13 C78.14,30.64 78.55,28.38 78.17,27.13 C77.35,24.54 75.29,23.74 72.7,23.03 C71.93,21.67 73.32,21.09 75.18,21.34 C76.7839918,21.5301274 78.3072576,22.1484144 79.59,23.13 C83.8,26.13 82.8,32.95 79.13,36.38 C72.88,42.23 59.72,39.25 58.13,29.77 C56.46,20 66.13,8.56 73.96,5.04 C77.15,3.61 72.49,-0.96 69.45,0.82 C59.2,6.68 47.96,22.35 53.73,34.82 C59.31,46.82 77.45,48.4 85.01,37.88 C91.96,28.17 85.9,14.87 73.18,16.19 Z" id="Shape" fill="#733E64"></path>
                </g>
            </g>
        </g>
    </g>
</svg>