<svg id="Layer_1" data-name="Layer 1" xmlns="http://www.w3.org/2000/svg" viewBox="0 0 166.76 176.6"><defs><style>.cls-1{fill:#ffc7ad;}.cls-2{fill:#f7ba9a;}.cls-3{fill:#733e64;}.cls-4{fill:#4ee3b3;}</style></defs><title>JaB_Logo_V1</title><path class="cls-1" d="M424.1,215.41c-17.55-2.91-38.17,8.29-48.77,21.47-5.26,6.54-7.82,13.68-9.55,21.92-5.6-1.65-13.52,1-14.76,7.41s5.36,10.68,10.91,10.92A1.88,1.88,0,0,0,363.8,276c1,11.71.4,6.78,3.72,15,6.91,17.26,37.54,28.65,56.59,28.27Z" transform="translate(-337.95 -210.81)"/><path class="cls-2" d="M480.75,261.7A48.81,48.81,0,0,0,471,261a33,33,0,0,0-4.71,1.15c-.28-14.13-6.17-25-16.27-35.05-1-1-8-6.43-10.82-7.77-1.93-.9-15.73-4.45-21.24-4.39V319.11a51.91,51.91,0,0,0,7.5.22,43.91,43.91,0,0,0,22.15-7.81c12-8.26,17.76-17.59,20-26.42.57-1.31,1.79-4.69,2.58-5.46,1.74.86,2.26.56,4.19.7,2.66.2,7-.22,8.55-2.75.63-1,1.66-1.35,2.12-7S481.64,262,480.75,261.7Z" transform="translate(-337.95 -210.81)"/><path class="cls-3" d="M431,297.79c.89-1.77,2-4.93-2.19-6.69-3.61-1.53-14.37-2.28-22.74,0s-3.32,8.81-2.23,10.15a16.22,16.22,0,0,0,7.85,5.61,15.62,15.62,0,0,0,13.54-2.5A18.28,18.28,0,0,0,431,297.79Z" transform="translate(-337.95 -210.81)"/><path class="cls-3" d="M404.33,269.44c-.27-1.42-1.31-2-2.85-2.07a2.25,2.25,0,0,0-2.73,2.06c-.64,2.9-2.24,6-5.56,6.49a6.37,6.37,0,0,1-3.94-.73,3.53,3.53,0,0,1-1.14-1.06c-.79-1.18-.7-2.63-.65-4.09.11-3.46-5.27-3.46-5.38,0a12,12,0,0,0,1.77,7c.07.17,2.91,4.32,7.19,5a11.92,11.92,0,0,0,7-1.26C403.17,278.48,405.4,275.06,404.33,269.44Z" transform="translate(-337.95 -210.81)"/><path class="cls-3" d="M429.23,269.44c.27-1.42,1.31-2,2.85-2.07a2.25,2.25,0,0,1,2.73,2.06c.64,2.9,2.24,6,5.56,6.49a6.37,6.37,0,0,0,3.94-.73,3.53,3.53,0,0,0,1.14-1.06c.79-1.18.7-2.63.65-4.09-.11-3.46,5.27-3.46,5.38,0a12,12,0,0,1-1.77,7c-.07.17-2.91,4.32-7.19,5a11.92,11.92,0,0,1-7-1.26C430.39,278.48,428.16,275.06,429.23,269.44Z" transform="translate(-337.95 -210.81)"/><path class="cls-3" d="M415.63,323.93A65.51,65.51,0,0,1,384,315.38c-14.17-7.77-21.55-19.72-22.5-36.47a18,18,0,0,1-5.74-.6c-3.33-.86-9.44-4.49-9.59-10.87s3.36-10,5.1-11.88c2.72-3,8.34-3.72,11.52-2.78l.48.16c3.55-15,15.81-37,37.29-40.93,27.55-5.05,47.05,7,55.5,14.66,11.11,10.06,16,19.89,17.87,30.77a15.2,15.2,0,0,1,8.05,2.21c6,3.52,5.25,9.38,4.93,11.89,0,.3-.08.57-.09.81-.25,3.21-3.49,9.85-9.82,10.66a16.17,16.17,0,0,1-5.09-.13c-3.24,10-10,19.35-20.47,28.35A55.52,55.52,0,0,1,415.63,323.93Zm-51.89-50.25a2.38,2.38,0,0,1,2.38,2.35c.23,16.61,6.62,27.79,20.12,35.2,26.05,14.28,49.72,7,62.07-3.59,10.56-9,17-18.3,19.65-28.28a2.38,2.38,0,0,1,3.15-1.61,10.77,10.77,0,0,0,5.26.55c3.66-.47,5.69-4.6,6-6.25a8,8,0,0,0-2.86-8.28h0a10.14,10.14,0,0,0-7.22-1.38,2.38,2.38,0,0,1-2.83-2.07c-1.2-10.59-6.88-20.16-17.87-30.11-9.53-8.62-26-18-50.25-13.51-20.7,3.8-31.32,26.13-33.52,39.69a4.23,4.23,0,0,1-2.07,2.43,2.38,2.38,0,0,1-2.33-.34,6.26,6.26,0,0,0-2.06-1.12c-1.71-.51-4-.34-7.07,1.84-1.74,1.24-3.54,3.92-3.44,8.15.09,3.69,4.35,6.06,5.69,6.31,0,0,3.68,1.17,6.28.21A2.56,2.56,0,0,1,363.73,273.67Z" transform="translate(-337.95 -210.81)"/><path class="cls-3" d="M419.13,227c-12.67,1.31-8.47,18.61,3.37,14.94,1.59-.49,2-2.75,1.62-4-.82-2.59-2.88-3.39-5.47-4.1-.77-1.36.62-1.94,2.48-1.69a9,9,0,0,1,4.41,1.79c4.21,3,3.21,9.82-.46,13.25-6.25,5.85-19.41,2.87-21-6.61-1.67-9.77,8-21.21,15.83-24.73,3.19-1.43-1.47-6-4.51-4.22-10.25,5.86-21.49,21.53-15.72,34,5.58,12,23.72,13.58,31.28,3.06C437.91,239,431.85,225.68,419.13,227Z" transform="translate(-337.95 -210.81)"/><path class="cls-4" d="M353.62,356.31c0,2.18-.25,4.46-.35,6.7-.1,2.43,0,4.91-.25,7.34-.15,1.29-.2,2.58-.25,3.87-.1,3,.15,7.29-1.44,10a6.85,6.85,0,0,1-5.51,3.17,7.8,7.8,0,0,1-6.15-3.08c-1.29-2-1.39-4.61-1.54-6.94-.15-1.93-.2-3.77-.2-5.61,0-1.24,1.19-.89,2.08-.89a11.08,11.08,0,0,1,1.79.1l.35.35c.5,3.37-.5,7.79,1.64,10.62h0a1.55,1.55,0,0,0,1.19.59c2.13,0,2.53-2,3.08-3.62l0,0a17.63,17.63,0,0,0,.55-4.27c0-5.26-.45-10.86-.45-16.32,0-2.23-.15-4.07,2.68-4.07a3.63,3.63,0,0,1,2.68.84A2.22,2.22,0,0,1,353.62,356.31Z" transform="translate(-337.95 -210.81)"/><path class="cls-4" d="M362,354.23a.77.77,0,0,1,.15.59c0,.55-.25,1-.3,1.59l-.2,1.79c-.25,3.37-.5,6.8-.5,10.22,0,4.12,0,13.94,3.37,13.94s3.92-5.36,3.92-7.79c0-6.4-.59-12.8-.59-19.15a1.38,1.38,0,0,1,1.34-1.54c.55,0,1.09.3,1.69.3a1.74,1.74,0,0,0,.5-.1c1.09.35,1.19,2.73,1.19,4.07,0,1.54-.1,3.08-.1,4.66,0,4.66.65,9.33.65,14,0,5.16-1.29,10.57-7.59,10.57-7.94,0-8.68-8.58-8.68-15.43v-4.66c0-1.79,0-12.4.64-13.24a1.35,1.35,0,0,1,1.19-.45,2.32,2.32,0,0,1,.79.1,9.67,9.67,0,0,1,1.24-.1,1.48,1.48,0,0,1,1.29.55Z" transform="translate(-337.95 -210.81)"/><path class="cls-4" d="M386.26,362.76c-.74-.35-.65-3.62-2.68-3.62a3,3,0,0,0-2.88,3.22c0,5.46,10.76,10,10.76,16.87,0,6.1-3.82,7-5.16,7.59a8,8,0,0,1-3.37.6,7.66,7.66,0,0,1-5.36-2.83c-.45-.5-2.38-2.88-2.38-4.46a1.63,1.63,0,0,1,.3-.94h0c.55-.89,2.68-.89,3.62-.89s1.34,1.09,1.59,1.93v0c.55,1.14,1.14,2,2.53,2s2.78-.69,2.78-2.28c0-2.48-2.08-4.41-3.67-6.1a21,21,0,0,1-2.83-3.72h0a20.82,20.82,0,0,1-2.73-4.17v0a9.76,9.76,0,0,1-.89-4.12,7.12,7.12,0,0,1,7.09-7.24,7.57,7.57,0,0,1,6.5,3.47v0a7,7,0,0,1,1.29,3.37c0,1.49-1,1.59-2.08,1.59H388A5.26,5.26,0,0,1,386.26,362.76Z" transform="translate(-337.95 -210.81)"/><path class="cls-4" d="M396,385.43c0-6.05.5-12.15.5-18.25,0-3,0-6.05-.15-9-1,0-2.08.1-3.17.1v-.5c0-.89-.15-1.69-.15-2.58s1.29-.94,2-.94,1.14,0,1.74,0c2.88,0,5.75,0,8.58-.1a14,14,0,0,1,.45,3.52,2.63,2.63,0,0,1-1.83.59c-.4,0-.84,0-1.29,0H401a4.51,4.51,0,0,0-.15,1.14c0,.79.1,1.49.1,2.28,0,3.57-.3,7.24-.3,10.86,0,5.85.55,9.62.55,12s-.25,2.93-2.58,2.93c-1.34,0-1.69,0-2.38-.5A6.66,6.66,0,0,1,396,385.43Z" transform="translate(-337.95 -210.81)"/><path class="cls-4" d="M425.15,386.86c-1.09-2.18-1.64-6.05-2.08-8.48a19.07,19.07,0,0,1-3.77.45l-.94,4.37v0a18.2,18.2,0,0,1-1.24,4.17c-1.34.1-2.63.1-3.92.1.1-2.53.94-5.06,1.44-7.59,1-5.16,1.93-10.32,3.22-15.48.59-2.48,1.79-6.65,1.89-9.08.64,0,1.24-.2,1.93-.2,1.93,0,2,1.29,2.23,2.48,1.44,8.13,2.18,16.52,4.46,24.46l0,0a18.62,18.62,0,0,1,.94,4.61v.5c-1,0-1.93.1-2.93.1h-.69ZM421.08,369a39.92,39.92,0,0,0-1,5.41l2.33-.45c-.25-2.08-1-4.27-1-6.45a11.8,11.8,0,0,1-.35,1.54Z" transform="translate(-337.95 -210.81)"/><path class="cls-4" d="M450.39,367.22c2.18,2.63,2.48,7.34,2.48,10.81a15.77,15.77,0,0,1-.35,3.72v0c-1.14,5.16-7,5.7-11.31,5.7-1.93,0-1.93-.84-1.93-2.43l.25-29a27.1,27.1,0,0,1,5-.64c3.77,0,8.28,1,8.28,5.65C452.82,363,451.88,366,450.39,367.22Zm-5.16-7.79a8.7,8.7,0,0,0-1.64.2,30.67,30.67,0,0,1,.3,4.22c0,.84-.1,1.14.89,1.14,2,0,3.27-.94,3.27-3.13C448.06,360.28,446.77,359.43,445.23,359.43Zm3.37,13.44c0-3.27-3.32-2.18-4.51-2.58h0c0,4,0,8.09.3,12.15a4.15,4.15,0,0,0,4.32-4.37C448.66,376.35,448.61,374.66,448.61,372.88Z" transform="translate(-337.95 -210.81)"/><path class="cls-4" d="M470.53,385.58a3,3,0,0,1-.69,1.79c-1.24-.1-2.58.15-3.67-.5a56.32,56.32,0,0,1-1.64-7.94c-.74,0-1.44-.1-2.18-.1a10.78,10.78,0,0,0-1.79.1c-1.14,2.88-1.19,7.14-2.33,8.38-1,0-3.72.65-3.72-1.39a15.41,15.41,0,0,1,1-5.16v0a22.73,22.73,0,0,0,.69-2.63L458.43,367a93.66,93.66,0,0,1,2.63-11.16,1.47,1.47,0,0,1,1.59-1.19c.5,0,1,.2,1.49.2a3.28,3.28,0,0,0,.69,0c.89,1.39,1.29,6.2,4,22v0A52.66,52.66,0,0,1,470.53,385.58Zm-6.7-11.11c-.2-2.28-.45-7.29-.94-7.29l-1.44,7.44C462.25,374.61,463,374.46,463.83,374.46Z" transform="translate(-337.95 -210.81)"/><path class="cls-4" d="M477.22,354.57H481c4,.2,6.35,3.13,6.35,7a8.92,8.92,0,0,1-1.49,5.11l0,0c-.2.3-.35.6-.55.89l.2.65h0c1.19,1.93,1.44,8.53,1.44,11a10.35,10.35,0,0,1-.94,4.91c-1.74,3.08-6.89,3.27-10,3.27-.6,0-1.14,0-1.64,0a21,21,0,0,1-.2-3.52v-2.33c0-1.83-.25-3.62-.25-5.51,0-6.85-.25-13.59-.25-20.44C474.45,354.67,475.94,354.57,477.22,354.57Zm2.28,4.66a7.14,7.14,0,0,0-1.49.2v.84c0,1.59.2,3.17.2,4.71,2.93-.15,4.07-.69,4.07-3.87C482.28,359.53,480.9,359.23,479.51,359.23Zm3.22,15.43c-.15-1.89,0-4.46-2.53-4.46-.6,0-1.19.2-1.74.2h-.15c.35,4-.15,7.79.4,11.66,3-.45,4.22-.1,4.22-3.52C482.93,377.24,482.83,375.9,482.73,374.66Z" transform="translate(-337.95 -210.81)"/><path class="cls-4" d="M499.69,354.82c0-.59,1.24-.74,1.74-.74.94,0,2.68.05,3.27.79a31.3,31.3,0,0,1-1.14,4.37L500.79,368c-.4,1.24-1.69,5-1.83,6.05a24.12,24.12,0,0,0-.15,2.68c0,1.79.15,3.57.15,5.31,0,.84-.05,4.27-.5,4.86-.74.05-1.44.15-2.18.15a6.73,6.73,0,0,1-1-.1c-.4-.84-.5-4.32-.5-7.34,0-1.84,0-3.52,0-4.32,0-1.19-2.28-7.34-2.78-9a62.84,62.84,0,0,1-2.73-10.07c.35-.69,2.13-1.14,2.88-1.14a1.14,1.14,0,0,1,.69.2c.45.35,3.72,11.16,4,12C497.46,365.29,499.69,356.71,499.69,354.82Z" transform="translate(-337.95 -210.81)"/></svg>