<svg id="Layer_1" data-name="Layer 1" xmlns="http://www.w3.org/2000/svg" xmlns:xlink="http://www.w3.org/1999/xlink" viewBox="0 0 549.62 500"><defs><style>.cls-1{fill:none;}.cls-2{clip-path:url(#clip-path);}.cls-3{fill:#3BAA9A;}</style><clipPath id="clip-path" transform="translate(0 0)"><path id="SVGID" class="cls-1" d="M250,9.5h1.72a240.57,240.57,0,0,1,91.49,462.28A238.89,238.89,0,0,1,250,490.5h-1.72A240.56,240.56,0,0,1,156.82,28.22,238.9,238.9,0,0,1,250,9.5"/></clipPath></defs><title>JAB Womb Icon 02</title><g class="cls-2"><path class="cls-3" d="M224.51,331c-2-6.72-3.69-14.81,1-20,1.93-2.17,4.66-3.42,7.3-4.61l18.73-8.43a9,9,0,0,1,4.49-1.14c1.77.18,3.24,1.38,4.84,2.17,5.49,2.71,12,.52,18-.25,12.6-1.61,25.65,3.49,34.6,12.52s13.87,21.65,14.5,34.33c.88,17.45-6.68,35.53-20.86,45.75S272.29,402.6,258,392.55c-7.16-5-13.21-12.77-21.9-13.81-5.4-.65-10.68,1.51-15.95,2.83-23.84,6-49-5.28-67.67-21.28a141.65,141.65,0,0,1-39.42-55.43c-3.66-9.31-6.34-19.19-6-29.18s4.14-20.16,11.66-26.75c8.19-7.17,19.88-9.31,30.67-7.92s20.91,5.94,30.63,10.83c-2.68-5.2-8.21-8.16-12.57-12.07s-7.74-10.5-4.61-15.45c2.35-3.71,7.2-4.68,11.15-6.6,6.33-3.09,10.71-9,15.49-14.18,3.55-3.84,22.86-18.22,26.48-7.35,1,3.06-.37,6.35-1.74,9.27L208,218.9c-2.34,5-4.74,10.41-3.85,15.88.85,5.28,4.6,9.56,8.19,13.52l15.18,16.75c3.07,3.39,6.5,7,11,7.68-.42-3.46,4.32-5.67,7.48-4.21s4.79,5,5.84,8.28c2.38,7.5,2.42,17.23-4.17,21.52-2.82,1.84-6.3,2.25-9.61,2.88a63.21,63.21,0,0,0-23.47,9.7Z" transform="translate(0 0)"/><path class="cls-3" d="M524.13,301.58c-13.71-15.45-32.29-26.27-45.17-42.4-17.41-21.8-22.49-50.95-22-78.71A234.41,234.41,0,0,1,480.52,82.4c12-24.7,28.61-47.89,33.65-74.83-98.23.19-323.71-.22-323.42,0-22.9,8.87-59.57,48.73-72.31,65.9a123.62,123.62,0,0,0,47.09,68.13C127,159,101,196.19,85.82,235.25c-12.08,31.1-18.62,69-2.81,100,15.09,29.62,39.32,53.61,66.52,72.63,30.77,21.53,65.16,37.37,99.37,52.73l-4.76,37.9L515.82,498c-.64-26.17,15-49.56,24.44-74C555.83,383.56,553,334.1,524.13,301.58ZM354,366.76c-3.88,64.48-110.46,69.69-180.71,33.54s-103.24-107-73.68-164.45,111.09-76.41,178.71-35.54C344,240,357,317,354,366.76Z" transform="translate(0 0)"/></g><path class="cls-3" d="M250,10h1.72A240.07,240.07,0,0,1,343,471.33,238.39,238.39,0,0,1,250,490h-1.72A240.07,240.07,0,0,1,157,28.68,238.41,238.41,0,0,1,250,10m0-10C112.71,0,1,110.78,0,248.25-1,386.32,110.18,499,248.25,500H250c137.25,0,249-110.78,250-248.25C501,113.68,389.82,1,251.75,0Z" transform="translate(0 0)"/></svg>